<svg width="34" height="38" viewBox="0 0 34 38" fill="none" xmlns="http://www.w3.org/2000/svg">
<path d="M27.8936 22.1341C27.3413 22.1341 26.8936 22.5818 26.8936 23.1341C26.8936 23.6863 27.3413 24.1341 27.8936 24.1341V22.1341ZM14.1064 36.5L13.7448 37.4324C13.8601 37.4771 13.9827 37.5 14.1064 37.5V36.5ZM9 34.52H8C8 34.9327 8.25362 35.3031 8.63847 35.4523L9 34.52ZM9 19.6688V18.6688C8.44772 18.6688 8 19.1165 8 19.6688H9ZM11.5532 19.6688V20.6688C11.712 20.6688 11.8685 20.631 12.0098 20.5584L11.5532 19.6688ZM23.5 18.1837L23.5 19.1837C23.852 19.1837 24.1781 18.9986 24.3586 18.6964L23.5 18.1837ZM21 17.1837C20.4477 17.1837 20 17.6314 20 18.1837C20 18.736 20.4477 19.1837 21 19.1837V17.1837ZM27.8936 27.5894L27.8936 26.5894C27.3413 26.5894 26.8936 27.0371 26.8936 27.5894C26.8936 28.1417 27.3413 28.5894 27.8936 28.5894L27.8936 27.5894ZM26.8723 31.0447C26.3201 31.0447 25.8723 31.4924 25.8723 32.0447C25.8723 32.5969 26.3201 33.0447 26.8723 33.0447V31.0447ZM1 18.5V17.5C0.447715 17.5 0 17.9477 0 18.5H1ZM1 36.5H0C0 36.7652 0.105357 37.0196 0.292894 37.2071C0.480431 37.3947 0.734785 37.5 1 37.5L1 36.5ZM9 18.5H10C10 17.9477 9.55228 17.5 9 17.5V18.5ZM6 32.5C6 31.9477 5.55228 31.5 5 31.5C4.44772 31.5 4 31.9477 4 32.5H6ZM7 36.5L7 35.5L7 36.5ZM30.0142 22.1341H27.8936V24.1341H30.0142V22.1341ZM27.8936 35.5H14.1064V37.5H27.8936V35.5ZM14.4679 35.5676L9.36153 33.5876L8.63847 35.4523L13.7448 37.4324L14.4679 35.5676ZM10 34.52V19.6688H8V34.52H10ZM9 20.6688H11.5532V18.6688H9V20.6688ZM12.0098 20.5584C14.9016 19.0743 21.234 15.8555 21.234 7.29274H19.234C19.234 14.5712 13.992 17.2931 11.0966 18.7791L12.0098 20.5584ZM21.234 7.29274C21.234 7.28325 21.2351 7.3343 21.1917 7.40723C21.1466 7.48305 21.0855 7.52823 21.0446 7.5483C20.9904 7.5748 21.0558 7.52412 21.3144 7.5824C21.8055 7.69306 22.5555 8.10795 23.1984 8.89638C24.4045 10.3756 25.2748 13.2613 22.6414 17.6709L24.3586 18.6964C27.3422 13.7002 26.5796 9.87837 24.7484 7.63254C23.8727 6.55844 22.753 5.85641 21.7541 5.63132C21.2677 5.52172 20.6829 5.49846 20.165 5.75211C19.5613 6.04771 19.234 6.62868 19.234 7.29274H21.234ZM30.0142 17.1837H21V19.1837H30.0142V17.1837ZM27.8936 28.5894H30.7723V26.5894H27.8936V28.5894ZM30.7723 22.1341H27.8936V24.1341H30.7723V22.1341ZM27.8936 28.5894L29.751 28.5894L29.751 26.5894L27.8936 26.5894L27.8936 28.5894ZM29.7511 31.0447H26.8723V33.0447H29.7511V31.0447ZM26.8723 33.0447H28.2191V31.0447H26.8723V33.0447ZM28.2191 35.5H27.8936V37.5H28.2191V35.5ZM21 19.1837L23.5 19.1837L23.5 17.1837L21 17.1837L21 19.1837ZM0 18.5V36.5H2V18.5H0ZM10 34.5V18.5H8V34.5H10ZM9 17.5H1V19.5H9V17.5ZM1 37.5L5 37.5L5 35.5L0.999998 35.5L1 37.5ZM5 37.5L6.99999 37.5L7 35.5L5 35.5L5 37.5ZM6 36.5V32.5H4V36.5H6ZM8 34.5C8 35.0523 7.55228 35.5 7 35.5L6.99999 37.5C8.65685 37.5 10 36.1569 10 34.5H8ZM29.4468 34.2723C29.4468 34.9504 28.8972 35.5 28.2191 35.5V37.5C30.0017 37.5 31.4468 36.0549 31.4468 34.2723H29.4468ZM28.2191 33.0447C28.8972 33.0447 29.4468 33.5943 29.4468 34.2723H31.4468C31.4468 32.4897 30.0017 31.0447 28.2191 31.0447V33.0447ZM30.9787 29.817C30.9787 30.495 30.4291 31.0447 29.7511 31.0447V33.0447C31.5337 33.0447 32.9787 31.5996 32.9787 29.817H30.9787ZM29.751 28.5894C30.4291 28.5893 30.9787 29.139 30.9787 29.817H32.9787C32.9787 28.0344 31.5336 26.5893 29.751 26.5894L29.751 28.5894ZM34 25.3617C34 23.5791 32.5549 22.1341 30.7723 22.1341V24.1341C31.4504 24.1341 32 24.6837 32 25.3617H34ZM30.7723 28.5894C32.5549 28.5894 34 27.1443 34 25.3617H32C32 26.0398 31.4504 26.5894 30.7723 26.5894V28.5894ZM31.4894 20.6589C31.4894 21.4736 30.8289 22.1341 30.0142 22.1341V24.1341C31.9335 24.1341 33.4894 22.5782 33.4894 20.6589H31.4894ZM33.4894 20.6589C33.4894 18.7396 31.9335 17.1837 30.0142 17.1837V19.1837C30.8289 19.1837 31.4894 19.8441 31.4894 20.6589H33.4894Z" fill="#FF5656"/>
<path d="M13.5 9C12.9477 9 12.5 9.44772 12.5 10C12.5 10.5523 12.9477 11 13.5 11V9ZM18.3 0.9C17.9686 0.458172 17.3418 0.368629 16.9 0.7C16.4582 1.03137 16.3686 1.65817 16.7 2.1L18.3 0.9ZM18.2 4.1C18.5314 4.54183 19.1582 4.63137 19.6 4.3C20.0418 3.96863 20.1314 3.34183 19.8 2.9L18.2 4.1ZM24.2 2.9C23.8686 3.34183 23.9582 3.96863 24.4 4.3C24.8418 4.63137 25.4686 4.54183 25.8 4.1L24.2 2.9ZM27.3 2.1C27.6314 1.65817 27.5418 1.03137 27.1 0.7C26.6582 0.368629 26.0314 0.458172 25.7 0.9L27.3 2.1ZM28.5 9C27.9477 9 27.5 9.44772 27.5 10C27.5 10.5523 27.9477 11 28.5 11V9ZM31 11C31.5523 11 32 10.5523 32 10C32 9.44772 31.5523 9 31 9V11ZM16.5 11C17.0523 11 17.5 10.5523 17.5 10C17.5 9.44772 17.0523 9 16.5 9V11ZM16.7 2.1L18.2 4.1L19.8 2.9L18.3 0.9L16.7 2.1ZM25.8 4.1L27.3 2.1L25.7 0.9L24.2 2.9L25.8 4.1ZM28.5 11H31V9H28.5V11ZM13.5 11H16.5V9H13.5V11Z" fill="black"/>
</svg>
