<svg width="34" height="37" viewBox="0 0 34 37" fill="none" xmlns="http://www.w3.org/2000/svg">
<path d="M6.10638 15.3659C6.65867 15.3659 7.10638 14.9182 7.10638 14.3659C7.10638 13.8137 6.65867 13.3659 6.10638 13.3659L6.10638 15.3659ZM19.8936 0.999999L20.2552 0.0676395C20.1399 0.0229336 20.0173 -1.13499e-06 19.8936 -1.1458e-06L19.8936 0.999999ZM25 2.98006L26 2.98006C26 2.56728 25.7464 2.19693 25.3615 2.0477L25 2.98006ZM25 17.8312L25 18.8312C25.5523 18.8312 26 18.3835 26 17.8312L25 17.8312ZM22.4468 17.8312L22.4468 16.8312C22.288 16.8312 22.1315 16.869 21.9902 16.9416L22.4468 17.8312ZM10.5 19.3164L10.5 18.3164C10.148 18.3164 9.82192 18.5014 9.64145 18.8036L10.5 19.3164ZM13 20.3163C13.5523 20.3163 14 19.8686 14 19.3163C14 18.7641 13.5523 18.3163 13 18.3163L13 20.3163ZM6.10638 9.9106L6.10641 10.9106C6.65869 10.9106 7.10639 10.4629 7.10638 9.91059C7.10638 9.3583 6.65866 8.9106 6.10638 8.9106L6.10638 9.9106ZM7.12766 6.45534C7.67995 6.45534 8.12766 6.00763 8.12766 5.45534C8.12766 4.90306 7.67995 4.45534 7.12766 4.45534L7.12766 6.45534ZM33 19L33 20C33.5523 20 34 19.5523 34 19L33 19ZM33 1L34 1C34 0.734783 33.8946 0.480429 33.7071 0.292893C33.5196 0.105356 33.2652 -4.82673e-07 33 0L33 1ZM25 19L24 19C24 19.5523 24.4477 20 25 20L25 19ZM28 5.00001C28 5.55229 28.4477 6.00001 29 6.00001C29.5523 6.00001 30 5.55229 30 5.00001L28 5.00001ZM27 1L27 2L27 1ZM3.98584 15.3659L6.10638 15.3659L6.10638 13.3659L3.98584 13.3659L3.98584 15.3659ZM6.10638 2L19.8936 2L19.8936 -1.1458e-06L6.10639 -2.35111e-06L6.10638 2ZM19.5321 1.93236L24.6385 3.91242L25.3615 2.0477L20.2552 0.0676395L19.5321 1.93236ZM24 2.98006L24 17.8312L26 17.8312L26 2.98006L24 2.98006ZM25 16.8312L22.4468 16.8312L22.4468 18.8312L25 18.8312L25 16.8312ZM21.9902 16.9416C19.0984 18.4257 12.766 21.6445 12.766 30.2073L14.766 30.2073C14.766 22.9288 20.008 20.2069 22.9034 18.7209L21.9902 16.9416ZM12.766 30.2073C12.766 30.2168 12.7649 30.1657 12.8083 30.0928C12.8534 30.017 12.9145 29.9718 12.9554 29.9517C13.0096 29.9252 12.9442 29.9759 12.6856 29.9176C12.1945 29.807 11.4445 29.3921 10.8016 28.6036C9.59553 27.1244 8.72518 24.2387 11.3586 19.8291L9.64145 18.8036C6.6578 23.7998 7.42043 27.6216 9.25156 29.8675C10.1273 30.9416 11.247 31.6436 12.2459 31.8687C12.7323 31.9783 13.3171 32.0015 13.835 31.7479C14.4387 31.4523 14.766 30.8713 14.766 30.2073L12.766 30.2073ZM3.98584 20.3163L13 20.3163L13 18.3163L3.98584 18.3163L3.98584 20.3163ZM6.10638 8.9106L3.22768 8.9106L3.22768 10.9106L6.10638 10.9106L6.10638 8.9106ZM3.22768 15.3659L6.10638 15.3659L6.10638 13.3659L3.22768 13.3659L3.22768 15.3659ZM6.10636 8.9106L4.24896 8.91064L4.249 10.9106L6.10641 10.9106L6.10636 8.9106ZM4.24893 6.45534L7.12766 6.45534L7.12766 4.45534L4.24893 4.45534L4.24893 6.45534ZM7.12766 4.45534L5.78087 4.45534L5.78087 6.45534L7.12766 6.45534L7.12766 4.45534ZM5.78087 2L6.10638 2L6.10639 -2.35111e-06L5.78087 -2.37957e-06L5.78087 2ZM13 18.3163L10.5 18.3164L10.5 20.3164L13 20.3163L13 18.3163ZM34 19L34 1L32 1L32 19L34 19ZM24 3L24 19L26 19L26 3L24 3ZM25 20L33 20L33 18L25 18L25 20ZM33 0L29 7.27971e-06L29 2.00001L33 2L33 0ZM29 7.27971e-06L27 3.29017e-06L27 2L29 2.00001L29 7.27971e-06ZM28 1.00001L28 5.00001L30 5.00001L30 1.00001L28 1.00001ZM26 3C26 2.44772 26.4477 2 27 2L27 3.29017e-06C25.3432 -1.48797e-08 24 1.34315 24 3L26 3ZM4.55319 3.22767C4.55319 2.54964 5.10284 2 5.78087 2L5.78087 -2.37957e-06C3.99827 -2.53541e-06 2.55319 1.44508 2.55319 3.22767L4.55319 3.22767ZM5.78087 4.45534C5.10284 4.45534 4.55319 3.90569 4.55319 3.22767L2.55319 3.22767C2.55319 5.01027 3.99828 6.45534 5.78087 6.45534L5.78087 4.45534ZM3.02128 7.68299C3.02128 7.00498 3.57092 6.45534 4.24893 6.45534L4.24893 4.45534C2.46635 4.45534 1.02128 5.90041 1.02128 7.68299L3.02128 7.68299ZM4.24896 8.91064C3.57093 8.91066 3.02128 8.36101 3.02128 7.68299L1.02128 7.68299C1.02128 9.4656 2.46639 10.9107 4.249 10.9106L4.24896 8.91064ZM1.64432e-06 12.1383C1.48848e-06 13.9209 1.44508 15.3659 3.22768 15.3659L3.22768 13.3659C2.54965 13.3659 2 12.8163 2 12.1383L1.64432e-06 12.1383ZM3.22768 8.9106C1.44508 8.9106 1.80016e-06 10.3557 1.64432e-06 12.1383L2 12.1383C2 11.4602 2.54965 10.9106 3.22768 10.9106L3.22768 8.9106ZM2.51064 16.8411C2.51064 16.0264 3.17111 15.3659 3.98584 15.3659L3.98584 13.3659C2.06654 13.3659 0.510641 14.9218 0.51064 16.8411L2.51064 16.8411ZM0.51064 16.8411C0.51064 18.7604 2.06654 20.3163 3.98584 20.3163L3.98584 18.3163C3.17111 18.3163 2.51064 17.6559 2.51064 16.8411L0.51064 16.8411Z" fill="black"/>
<path d="M20.5 28.5C21.0523 28.5 21.5 28.0523 21.5 27.5C21.5 26.9477 21.0523 26.5 20.5 26.5L20.5 28.5ZM15.7 36.6C16.0314 37.0418 16.6582 37.1314 17.1 36.8C17.5418 36.4686 17.6314 35.8418 17.3 35.4L15.7 36.6ZM15.8 33.4C15.4686 32.9582 14.8418 32.8686 14.4 33.2C13.9582 33.5314 13.8686 34.1582 14.2 34.6L15.8 33.4ZM9.8 34.6C10.1314 34.1582 10.0418 33.5314 9.6 33.2C9.15817 32.8686 8.53137 32.9582 8.2 33.4L9.8 34.6ZM6.7 35.4C6.36863 35.8418 6.45817 36.4686 6.9 36.8C7.34183 37.1314 7.96863 37.0418 8.3 36.6L6.7 35.4ZM5.5 28.5C6.05229 28.5 6.5 28.0523 6.5 27.5C6.5 26.9477 6.05229 26.5 5.5 26.5L5.5 28.5ZM3 26.5C2.44772 26.5 2 26.9477 2 27.5C2 28.0523 2.44772 28.5 3 28.5L3 26.5ZM17.5 26.5C16.9477 26.5 16.5 26.9477 16.5 27.5C16.5 28.0523 16.9477 28.5 17.5 28.5L17.5 26.5ZM17.3 35.4L15.8 33.4L14.2 34.6L15.7 36.6L17.3 35.4ZM8.2 33.4L6.7 35.4L8.3 36.6L9.8 34.6L8.2 33.4ZM5.5 26.5L3 26.5L3 28.5L5.5 28.5L5.5 26.5ZM20.5 26.5L17.5 26.5L17.5 28.5L20.5 28.5L20.5 26.5Z" fill="#FF5656"/>
</svg>
